<svg xmlns="http://www.w3.org/2000/svg" viewBox="0 0 1380 457" preserveAspectRatio="none">
  <path fill="#FFFFFF" fill-rule="evenodd" d="M424.841438,13112.2051 C438.456728,13126.3066 445.264271,13145.0274 445.264271,13168.3679 C445.264271,13185.8732 440.806951,13202.1627 431.892178,13217.2368 C422.977404,13232.3109 408.470855,13244.6293 388.372093,13254.1924 C368.273332,13263.7555 342.501919,13268.537 311.057082,13268.537 L30,13268.537 L30,12923.2939 L309.112051,12923.2939 C351.254615,12923.2939 383.104191,12930.9118 404.661734,12946.148 C426.219276,12961.3841 436.997886,12982.4551 436.997886,13009.3615 C436.997886,13027.8394 431.000765,13043.8858 419.006342,13057.5011 C407.01192,13071.1163 389.020557,13080.3552 365.031712,13085.2178 C391.289772,13089.1078 411.226148,13098.1035 424.841438,13112.2051 Z M154.48203,13000.1226 L154.48203,13057.9873 L271.183932,13057.9873 C284.150875,13057.9873 293.389684,13055.0698 298.900634,13049.2347 C304.411585,13043.3995 307.167019,13036.1058 307.167019,13027.3531 C307.167019,13009.1993 295.172777,13000.1226 271.183932,13000.1226 L154.48203,13000.1226 Z M305.465116,13181.9831 C312.110675,13175.4996 315.433404,13167.5575 315.433404,13158.1564 C315.433404,13148.7554 312.029632,13141.2185 305.221987,13135.5455 C298.414342,13129.8724 288.689281,13127.0359 276.046512,13127.0359 L154.48203,13127.0359 L154.48203,13191.7082 L276.046512,13191.7082 C289.013455,13191.7082 298.819558,13188.4666 305.465116,13181.9831 Z M483.678647,13366.2748 L483.678647,13279.7209 C501.508193,13282.9627 519.013304,13284.5835 536.194503,13284.5835 C548.513099,13284.5835 560.912552,13283.611 573.393235,13281.666 C585.873917,13279.7209 594.707515,13276.3171 599.894292,13271.4545 L600.38055,13270.482 L454.989429,13025.408 L586.765328,13025.408 L643.171247,13146.4863 C644.143768,13148.7555 646.250865,13153.2128 649.4926,13159.8584 C652.734336,13166.5039 655.651855,13173.3925 658.245243,13180.5243 L660.676533,13180.5243 C661.32488,13178.9034 663.756145,13173.3926 667.970402,13163.9915 L674.778013,13148.4313 L729.725159,13025.408 L857.124736,13025.408 L720.972516,13278.7484 C703.142969,13311.8141 681.666792,13335.7216 656.54334,13350.4715 C631.419888,13365.2214 598.273638,13372.5962 557.103594,13372.5962 C523.389542,13372.5962 498.914805,13370.4891 483.678647,13366.2748 Z M1232.0296,13170.7992 L974.312896,13170.7992 C978.527153,13182.4694 987.522835,13191.4651 1001.30021,13197.7865 C1015.07759,13204.1079 1032.50166,13207.2685 1053.57294,13207.2685 C1068.8091,13207.2685 1083.63982,13204.6751 1098.06554,13199.4884 C1112.49126,13194.3016 1123.43196,13187.4941 1130.88795,13179.0655 L1220.35941,13217.4799 C1202.85404,13236.6062 1179.43285,13251.4369 1150.09514,13261.9725 C1120.75743,13272.5082 1086.80076,13277.7759 1048.2241,13277.7759 C988.900338,13277.7759 942.706296,13266.2679 909.640592,13243.2516 C876.574888,13220.2353 860.042283,13188.1426 860.042283,13146.9725 C860.042283,13120.3903 867.660248,13097.2933 882.896406,13077.6808 C898.132564,13058.0683 919.770825,13042.9134 947.811839,13032.2156 C975.852853,13021.5179 1008.67494,13016.1691 1046.27907,13016.1691 C1105.60283,13016.1691 1151.39166,13028.8117 1183.64693,13054.0973 C1215.9022,13079.3828 1232.0296,13114.7172 1232.0296,13160.1015 L1232.0296,13170.7992 Z M1114.35518,13114.8795 C1113.70683,13104.1818 1107.14242,13095.024 1094.66173,13087.4059 C1082.18105,13079.7878 1065.89157,13075.9789 1045.79281,13075.9789 C1025.36988,13075.9789 1008.99936,13079.3826 996.680761,13086.1903 C984.362165,13092.9979 976.582116,13102.5609 973.340381,13114.8795 L1114.35518,13114.8795 Z M1277.73784,12916 L1410,12916 L1396.38478,13145.0275 L1291.35307,13145.0275 L1277.73784,12916 Z M1407.56871,13268.537 L1280.16913,13268.537 L1280.16913,13181.4968 L1407.56871,13181.4968 L1407.56871,13268.537 Z" transform="translate(-30 -12916)"/>
</svg>
