<svg xmlns="http://www.w3.org/2000/svg" x="0px" y="0px" viewBox="0 0 1380 793" preserveAspectRatio="none" style="enable-background:new 0 0 1380 793;" xml:space="preserve">
  <style xmlns="http://www.w3.org/2000/svg" type="text/css">
	.text{fill:#FFFFFF;}
  </style>
  <path class="text" fill="#FFFFFF" fill-rule="evenodd" d="M768.481807,668.920954 L547.716437,668.920954 L547.716437,432.572146 L251.631117,432.572146 L251.631117,668.920954 L30,668.920954 L30,54.2409034 L251.631117,54.2409034 L251.631117,285.395232 L547.716437,285.395232 L547.716437,54.2409034 L768.481807,54.2409034 L768.481807,668.920954 Z M896.612296,236.047679 L1109.58595,236.047679 L1109.58595,668.920954 L896.612296,668.920954 L896.612296,236.047679 Z M893.14931,30 L1113.04893,30 L1113.04893,180.6399 L893.14931,180.6399 L893.14931,30 Z M1229.05897,746.838143 C1258.4945,742.220805 1279.84937,733.996295 1293.12422,722.164366 C1306.39906,710.332438 1313.03639,694.604866 1313.03639,674.981179 L1313.03639,668.920954 L1212.60979,668.920954 L1212.60979,489.711418 L1410,489.711418 L1410,660.263488 C1410,702.396697 1396.86964,738.757689 1370.60853,769.347553 C1344.34742,799.937418 1302.35913,817.540755 1244.64241,822.158093 L1229.05897,746.838143 Z" transform="translate(-30 -30)"/>
</svg>
